<svg width="24" height="24" viewBox="0 0 24 24" fill="none" xmlns="http://www.w3.org/2000/svg">
<g id="Foil">
<path id="Vector 1" d="M12 9.39757C10.6088 8.95781 6.43511 9.17769 4.58015 9.39757C3.34351 9.54415 2.26145 8.0783 3.65267 7.19878C5.45259 6.06089 8.61674 5 12 5C15.3833 5 18.5474 6.06089 20.3473 7.19878C21.7385 8.0783 20.6565 9.54415 19.4198 9.39757C17.5649 9.17769 13.3912 8.95781 12 9.39757ZM12 9.39757V17.7529M12 9.39757V7.19878V18.1927M12 17.7529C12 17.7529 9.56081 17.5108 8.29008 18.1927C7.39847 18.6712 5.46322 19.6445 6.43511 19.9517C6.77873 20.0603 7.36259 19.9517 7.36259 19.9517C7.36259 19.9517 10.1799 19.512 12 19.512C13.8201 19.512 16.6374 19.9517 16.6374 19.9517C16.6374 19.9517 17.2213 20.0603 17.5649 19.9517C18.5368 19.6445 16.6015 18.6712 15.7099 18.1927C14.4392 17.5108 12 17.7529 12 17.7529Z" stroke="white" stroke-linecap="round" stroke-linejoin="round"/>
</g>
</svg>
