<svg xmlns="http://www.w3.org/2000/svg" width="28" height="28" viewBox="0 0 28 28" fill="none">
  <path d="M9.33317 22.1667C9.33317 23.4553 8.2885 24.5 6.99984 24.5C5.71117 24.5 4.6665 23.4553 4.6665 22.1667C4.6665 20.878 5.71117 19.8333 6.99984 19.8333C8.2885 19.8333 9.33317 20.878 9.33317 22.1667Z" fill="#66CC52"/>
  <path d="M13.9998 22.1667H19.2498C20.3328 22.1667 21.3714 21.7365 22.1372 20.9707C22.903 20.2049 23.3332 19.1663 23.3332 18.0833C23.3332 17.0004 22.903 15.9618 22.1372 15.196C21.3714 14.4302 20.3328 14 19.2498 14H9.9165C8.83354 14 7.79492 13.5698 7.02915 12.804C6.26338 12.0382 5.83317 10.9996 5.83317 9.91667C5.83317 8.8337 6.26338 7.79509 7.02915 7.02931C7.79492 6.26354 8.83354 5.83333 9.9165 5.83333H13.9998M9.33317 22.1667C9.33317 23.4553 8.2885 24.5 6.99984 24.5C5.71117 24.5 4.6665 23.4553 4.6665 22.1667C4.6665 20.878 5.71117 19.8333 6.99984 19.8333C8.2885 19.8333 9.33317 20.878 9.33317 22.1667ZM23.3332 5.83333C23.3332 7.122 22.2885 8.16667 20.9998 8.16667C19.7112 8.16667 18.6665 7.122 18.6665 5.83333C18.6665 4.54467 19.7112 3.5 20.9998 3.5C22.2885 3.5 23.3332 4.54467 23.3332 5.83333Z" stroke="#66CC52" stroke-width="2" stroke-linecap="round" stroke-linejoin="round"/>
</svg>